<?xml version="1.0" standalone="yes"?>
<svg xmlns="http://www.w3.org/2000/svg" width="300" height="300">
<path style="fill:#faf9f5; stroke:none;" d="M0 0L0 300L300 300L300 0L164 0L164 1C186.483 1 208.763 2.97559 231 6.42438C236.72 7.31149 249.277 7.15811 253.397 11.564C256.628 15.0197 255 23.6219 255 28L255 73L255 233L255 273C255 277.341 256.456 285.038 253.397 288.566C250.618 291.77 243.929 291.906 240 292.565C228.393 294.511 216.699 295.999 205 297.169C151.821 302.486 100.593 296.792 48 290L48 10L139 1C128.02 -3.60736 108.944 0 97 0L0 0z"/>
<path style="fill:#d9c756; stroke:none;" d="M139 0L139 1L164 1L139 0M115 1L115 2L126 2L115 1z"/>
<path style="fill:#acbd66; stroke:none;" d="M49 290L105 297.83L178 298.961L254 290L254 84L254 31C254 26.2496 256 15.4951 252.972 11.5995C251.095 9.18475 245.785 9.11539 243 8.6142C234.03 6.99985 224.998 5.99219 216 4.59027C176.056 -1.63284 135.038 0.976349 95 3.91125C83.6206 4.74539 72.2385 6.39807 61 8.42438C57.8405 8.99402 51.2173 9.03046 49.6034 12.3171C46.4326 18.7743 48 29.9707 48 37L48 92C48 157.908 46.1752 224.209 49 290z"/>
<path style="fill:#d9c756; stroke:none;" d="M175 1L175 2L188 2L175 1M103 2L103 3L107 3L103 2M128 2L128 3L138 4L138 3L128 2M156 5L156 6L166 4L166 2L156 5M170 3L170 4L180 4L170 3M196 2L196 3L199 3L196 2M93 3L93 4L99 4L93 3M109 4L109 5L124 6L124 5L119 5L119 4L125 4L109 4M168 3L169 4L168 3M204 3L204 4L209 4L204 3M85 4L85 5L88 5L85 4M107 4L108 5L107 4M126.667 4.33334L127.333 4.66666L126.667 4.33334M142 4L142 5L155 7L155 6L142 4M188 6L188 7L197 8L207 7C200.871 3.3287 194.511 5.17557 188 6M215.667 4.33334L216.333 4.66666L215.667 4.33334M77 5L77 6L81 6L77 5M180 7L180 8L187 8L180 7M221 5L221 6L225 6L221 5M70 6L70 7L73 7L70 6M126.667 6.33334L127.333 6.66666L126.667 6.33334M177 6L177 8L179 8L177 6M230.667 6.33334L231.333 6.66666L230.667 6.33334M64 7L64 8L67 8L64 7M76 7L76 8L90 8L90 7L76 7M96 7L96 8L105 8L96 7M107 7L107 8L114 8L107 7M214 7L214 9L221 9L214 7M222 7L223 8L222 7M235 7L235 8L238 8L235 7M58 8L58 9L61 9L58 8z"/>
<path style="fill:#63a239; stroke:none;" d="M127 8L127 9L172 9C160.299 4.09 139.742 8 127 8M174 8L175 9L174 8z"/>
<path style="fill:#d9c756; stroke:none;" d="M242.667 8.33334L243.333 8.66666L242.667 8.33334M53 9L53 10L56 10L53 9M61 9L67 11L67 12C61.0464 11.8771 55.5311 9.6586 54 17L55 17L55 14L78 12L78 11L69 11L61 9z"/>
<path style="fill:#63a239; stroke:none;" d="M113 9L113 10L125 10L113 9z"/>
<path style="fill:#089019; stroke:none;" d="M246 283L246 17C198.431 13.2457 153.016 6.03003 105 10.831C93.31 11.9998 81.6069 13.1763 70 15.0803C66.4333 15.6653 60.4219 15.3999 57.6034 17.9383C54.4339 20.7926 56 29.1418 56 33L56 76L56 230L56 268C56 271.839 54.5905 279.301 57.6034 282.258C60.1025 284.711 65.7174 284.582 69 285.196C79.5542 287.169 90.3599 287.9 101 289.282C148.602 295.465 198.921 291.771 246 283z"/>
<path style="fill:#63a239; stroke:none;" d="M177 9L177 10L189 10L177 9z"/>
<path style="fill:#d9c756; stroke:none;" d="M225 9C227.013 11.7623 229.118 11.6365 232 10L225 9M233 9L234 10L233 9M247 9L247 10L250 10L247 9M48 10L48 21L49 21L50 10L48 10M79 10L80 11L79 10z"/>
<path style="fill:#63a239; stroke:none;" d="M100 10L100 11L108 11L100 10M193 10L193 11L201 11L193 10z"/>
<path style="fill:#d9c756; stroke:none;" d="M237 11L237 13L242 13L241 10L237 11M253 10L254 11L253 10z"/>
<path style="fill:#63a239; stroke:none;" d="M92 11L92 12L98 12L92 11M203 11L203 12L211 12L203 11z"/>
<path style="fill:#d9c756; stroke:none;" d="M234.667 11.3333L235.333 11.6667L234.667 11.3333M249 11C249 14.5105 248.013 18.1456 252 19L252 18L250 16L252 17L252 16L251 11L249 11M254 11L254 289L255 289L255 93L255 36L254 11z"/>
<path style="fill:#63a239; stroke:none;" d="M83 12L83 13L89 13L83 12M214 12L214 13L219 13L214 12z"/>
<path style="fill:#d9c756; stroke:none;" d="M245 12L244 15L245 12z"/>
<path style="fill:#63a239; stroke:none;" d="M76 13L76 14L82 14L76 13M221 13L221 14L226 14L221 13M70 14L70 15L74 15L70 14M229 14L229 15L232 15L229 14M64 15L64 16L68 16L64 15M234 15L234 16L239 16L234 15z"/>
<path style="fill:#d9c756; stroke:none;" d="M50 16L50 21L51 21L50 16z"/>
<path style="fill:#63a239; stroke:none;" d="M58 16L58 17L61 17L58 16M241 16L241 17L244 17L241 16M56 17L57 18L56 17M246 17L246 283L247 283L247 95L247 41L246 17M55 19L55 281L56 281L56 96L56 43L55 19z"/>
<path style="fill:#d9c756; stroke:none;" d="M250 20L250 194C250 222.245 245.845 254.233 251 282L252 282L252 90L252 40L250 20z"/>
<path style="fill:#63a239; stroke:none;" d="M77 22L78 26L79 26L77 22z"/>
<path style="fill:#acbd66; stroke:none;" d="M78 22L79 23L78 22z"/>
<path style="fill:#63a239; stroke:none;" d="M79 22L82 25L79 22M88 22L89 23L88 22z"/>
<path style="fill:#acbd66; stroke:none;" d="M88 24L91 23L88 24M105 22L105 24L107 22L105 22z"/>
<path style="fill:#63a239; stroke:none;" d="M107.333 22.6667L107.667 23.3333L107.333 22.6667z"/>
<path style="fill:#d9c756; stroke:none;" d="M78 23L87 35L78 23M89 23L93 32L91 23L89 23M106 23L103 32L104 32L106 23z"/>
<path style="fill:#acbd66; stroke:none;" d="M78 24L79 25L78 24z"/>
<path style="fill:#63a239; stroke:none;" d="M88 24L89 25L88 24M91.3333 24.6667L91.6667 25.3333L91.3333 24.6667M96 24L96 32L97 32L96 24z"/>
<path style="fill:#acbd66; stroke:none;" d="M97.6667 24.3333L98.3333 24.6667L97.6667 24.3333z"/>
<path style="fill:#63a239; stroke:none;" d="M104 24L105 25L104 24z"/>
<path style="fill:#acbd66; stroke:none;" d="M81 25L82 26L81 25z"/>
<path style="fill:#d9c756; stroke:none;" d="M97 25L97 31L99 31L99 25L97 25z"/>
<path style="fill:#63a239; stroke:none;" d="M99 25L99 30L100 30L99 25z"/>
<path style="fill:#acbd66; stroke:none;" d="M104 25L105 26L104 25M106 25L107 26L106 25M79 26L80 27L79 26z"/>
<path style="fill:#63a239; stroke:none;" d="M82 26L83 27L82 26z"/>
<path style="fill:#acbd66; stroke:none;" d="M89 26L90 27L89 26M91 26L92 27L91 26z"/>
<path style="fill:#63a239; stroke:none;" d="M103.333 26.6667L103.667 27.3333L103.333 26.6667M106.333 26.6667L106.667 27.3333L106.333 26.6667M113 26L114 27L113 26z"/>
<path style="fill:#acbd66; stroke:none;" d="M114 26L112 29L115 27L112 32C114.394 29.9717 115.583 28.857 114 26z"/>
<path style="fill:#63a239; stroke:none;" d="M115 26L116 27L115 26z"/>
<path style="fill:#acbd66; stroke:none;" d="M80 27L81 28L80 27z"/>
<path style="fill:#63a239; stroke:none;" d="M83 27L84 28L83 27M89.3333 27.6667L89.6667 28.3333L89.3333 27.6667M92.3333 27.6667L92.6667 28.3333L92.3333 27.6667z"/>
<path style="fill:#d9c756; stroke:none;" d="M114 27L108 35C111.28 33.3334 114.196 30.879 114 27z"/>
<path style="fill:#acbd66; stroke:none;" d="M83 28L84 29L83 28M103 28L104 29L103 28M105 28L106 29L105 28z"/>
<path style="fill:#63a239; stroke:none;" d="M81 29L82 30L81 29z"/>
<path style="fill:#acbd66; stroke:none;" d="M84 29L85 30L84 29M90 29L91 30L90 29M92 29L93 30L92 29z"/>
<path style="fill:#63a239; stroke:none;" d="M102.333 29.6667L102.667 30.3333L102.333 29.6667M105 29L106 30L105 29M111 29L112 30L111 29z"/>
<path style="fill:#acbd66; stroke:none;" d="M82 30L83 31L82 30z"/>
<path style="fill:#63a239; stroke:none;" d="M85 30L86 31L85 30M90.3333 30.6667L90.6667 31.3333L90.3333 30.6667M110 30L111 31L110 30M74 31L78 37L74 31z"/>
<path style="fill:#acbd66; stroke:none;" d="M75 31L76 32L75 31M83 31L84 32L83 31z"/>
<path style="fill:#63a239; stroke:none;" d="M86 31L87 32L86 31M93.3333 31.6667L93.6667 32.3333L93.3333 31.6667z"/>
<path style="fill:#acbd66; stroke:none;" d="M97.6667 31.3333L98.3333 31.6667L97.6667 31.3333M102 31L102 32L105 32L105 31L102 31z"/>
<path style="fill:#63a239; stroke:none;" d="M109 31L108 33L109 31z"/>
<path style="fill:#d9c756; stroke:none;" d="M74 32L74 33L83 38L74 32z"/>
<path style="fill:#63a239; stroke:none;" d="M77 32L78 33L77 32M83 32L84 33L83 32M87 32L88 33L87 32z"/>
<path style="fill:#acbd66; stroke:none;" d="M91.6667 32.3333L92.3333 32.6667L91.6667 32.3333z"/>
<path style="fill:#63a239; stroke:none;" d="M102 32L103 33L102 32M104 32L105 33L104 32z"/>
<path style="fill:#acbd66; stroke:none;" d="M109 32L110 33L109 32z"/>
<path style="fill:#63a239; stroke:none;" d="M112 32L113 33L112 32M116 35L121 33L116 35M78 33L79 34L78 33M84 33L85 34L84 33z"/>
<path style="fill:#acbd66; stroke:none;" d="M87 33L86 36L87 33M108 33L109 34L108 33z"/>
<path style="fill:#63a239; stroke:none;" d="M111 33L112 34L111 33z"/>
<path style="fill:#acbd66; stroke:none;" d="M118 33L117 35L118 33z"/>
<path style="fill:#d9c756; stroke:none;" d="M119 33L113 39L119 33z"/>
<path style="fill:#acbd66; stroke:none;" d="M120.333 33.6667L120.667 34.3333L120.333 33.6667z"/>
<path style="fill:#63a239; stroke:none;" d="M152 33L147 41C150.972 37.8291 152.754 34.9179 158 37L152 33z"/>
<path style="fill:#acbd66; stroke:none;" d="M76 34L77 35L76 34M79 34L80 35L79 34z"/>
<path style="fill:#63a239; stroke:none;" d="M85 34L86 35L85 34M88 34L89 35L88 34M107 34L108 35L107 34z"/>
<path style="fill:#acbd66; stroke:none;" d="M110 34L111 35L110 34M145 59L146 59C144.947 50.6266 145.902 43.495 153 38C152.079 40.8387 151.732 42.4786 155 43L154 36L160 41C150.736 25.1749 142.813 49.8131 145 59M77 35L78 36L77 35M80 35L81 36L80 35z"/>
<path style="fill:#63a239; stroke:none;" d="M87 35L88 36L87 35z"/>
<path style="fill:#acbd66; stroke:none;" d="M108 35L109 36L108 35z"/>
<path style="fill:#63a239; stroke:none;" d="M109 35L110 36L109 35z"/>
<path style="fill:#acbd66; stroke:none;" d="M115 35L116 36L115 35z"/>
<path style="fill:#63a239; stroke:none;" d="M119 35L120 36L119 35z"/>
<path style="fill:#acbd66; stroke:none;" d="M78 36L79 37L78 36z"/>
<path style="fill:#63a239; stroke:none;" d="M82 36L83 37L82 36M113 36L114 37L113 36z"/>
<path style="fill:#acbd66; stroke:none;" d="M114 36L115 37L114 36z"/>
<path style="fill:#63a239; stroke:none;" d="M118 36L119 37L118 36z"/>
<path style="fill:#d9c756; stroke:none;" d="M154 36L155 43L152 42L153 38C141.098 44.0996 142.959 63.1321 156 66L154 71L151 66L136 63C137.457 71.591 138.775 77.4347 145 84L133 80L137 86L137 87L134 86L141 102L145 103L145 104L133 101L130 106L136 106L136 107L132 112L136 115L130 113L134 116L134 117L128 122L129 122L129 120L130 120L129 126C132.172 126 131.553 128.375 131 131L134 133L132 132L134 136L134 137L130 136L129 148L130 149L130 150L133 152L131 151L131 152L136 156L131 157L127 153L127 154L130 156C127.235 157.314 123.9 159.261 127 162L126 166C128.436 166 127.615 166.786 127 169L129 168L129 169L130 176L132 174L133 174C130.702 177.592 127.835 176.881 124 176L125 182L124 186L125 186L125 184L126 184L125 189L128 191L126 190C128.273 193.916 130.275 196.797 135 197C135.607 200.216 136.753 200.865 140 201L141 204L144 203L143 205L150 203L150 202L147 200L150 200L152 191C149.217 191 149.682 189.465 150 187C146.458 187.708 147.491 182.373 150 183L149 172L150 171L152 171L153 180L156 181C152.064 188.247 152.822 198.394 158 205L155 206L155 207L161 202L163 201L166 199L169 199L174 192L170 198L177 190L174 192L177 184L178 186L179 186L178 182L180 182L179 175L174 178L172 171L174 172L175 170L174 167L176 168L175 165C177.294 165.031 176.716 164.168 176 162C181.157 160.969 173.574 155.704 174 154L172 157L167 156L172 152L172 151L170 152L170 151L173 150L173 144C177.379 143.223 171.429 137.653 169 137L171 128C175.304 127.354 172.726 120.394 173 117L168 115L173 114L167 115C168.263 112.007 169.658 109.371 167 107L167 106L170 100L160 103C162.588 99.3805 171.239 91.4345 167 87L167 86L169 81L158 84C163.762 77.5127 166.981 70.8557 166 62L158 65C161.157 54.7045 163.889 43.1385 154 36z"/>
<path style="fill:#63a239; stroke:none;" d="M79 37L80 38L79 37M83 37L82 39L82 40C84.1579 39.0224 84.5007 38.8117 83 37M112 37L111 39L112 37z"/>
<path style="fill:#acbd66; stroke:none;" d="M116 37L117 38L116 37z"/>
<path style="fill:#63a239; stroke:none;" d="M117 37L118 38L117 37M80 38L81 39L80 38z"/>
<path style="fill:#acbd66; stroke:none;" d="M81 38L82 39L81 38z"/>
<path style="fill:#faf9f5; stroke:none;" d="M82 38L83 39L82 38z"/>
<path style="fill:#acbd66; stroke:none;" d="M83 38L84 39L83 38M112 38L112 40L114 40L112 38z"/>
<path style="fill:#63a239; stroke:none;" d="M115 38L116 39L115 38M158 38L159 39L158 38M114 39L115 40L114 39M159 39L160 40L159 39M70.6667 40.3333L71.3333 40.6667L70.6667 40.3333M97 40L99 42L99 40L97 40M122 40L122 41L126 43L122 40M160 40L162 43L160 40z"/>
<path style="fill:#acbd66; stroke:none;" d="M70.3333 41.6667L70.6667 42.3333L70.3333 41.6667z"/>
<path style="fill:#d9c756; stroke:none;" d="M71 41L81 44L71 41z"/>
<path style="fill:#acbd66; stroke:none;" d="M74.6667 41.3333L75.3333 41.6667L74.6667 41.3333z"/>
<path style="fill:#63a239; stroke:none;" d="M76.6667 41.3333L77.3333 41.6667L76.6667 41.3333z"/>
<path style="fill:#acbd66; stroke:none;" d="M97 41L99 43L97 41z"/>
<path style="fill:#63a239; stroke:none;" d="M118 41L118 42L121 42L118 41z"/>
<path style="fill:#acbd66; stroke:none;" d="M121 41L122 42L121 41z"/>
<path style="fill:#d9c756; stroke:none;" d="M115 43L115 44L126 42L115 43z"/>
<path style="fill:#63a239; stroke:none;" d="M69 42L70 43L69 42z"/>
<path style="fill:#acbd66; stroke:none;" d="M79 42L80 43L79 42z"/>
<path style="fill:#63a239; stroke:none;" d="M80 42L81 43L80 42M96.3333 42.6667L96.6667 43.3333L96.3333 42.6667z"/>
<path style="fill:#d9c756; stroke:none;" d="M97 42C95.6394 45.7858 93.9318 47.1879 90 48L94 51L92 58L103 58C102.606 53.8301 102.862 51.8969 106 49L106 48L97 42z"/>
<path style="fill:#63a239; stroke:none;" d="M115 42L116 43L115 42z"/>
<path style="fill:#acbd66; stroke:none;" d="M116.667 42.3333L117.333 42.6667L116.667 42.3333M125 42L126 43L125 42z"/>
<path style="fill:#63a239; stroke:none;" d="M146 42L147 43L146 42z"/>
<path style="fill:#acbd66; stroke:none;" d="M160 42L161 43L160 42z"/>
<path style="fill:#63a239; stroke:none;" d="M72 43L73 44L72 43z"/>
<path style="fill:#acbd66; stroke:none;" d="M73 43L73 44L76 44L73 43z"/>
<path style="fill:#63a239; stroke:none;" d="M81 43L82 44L81 43M99.3333 43.6667L99.6667 44.3333L99.3333 43.6667M114.333 43.6667L114.667 44.3333L114.333 43.6667z"/>
<path style="fill:#acbd66; stroke:none;" d="M120.667 43.3333L121.333 43.6667L120.667 43.3333z"/>
<path style="fill:#63a239; stroke:none;" d="M122.667 43.3333L123.333 43.6667L122.667 43.3333M145.333 43.6667L145.667 44.3333L145.333 43.6667z"/>
<path style="fill:#acbd66; stroke:none;" d="M161 43L158 65L166 62C165.376 71.4051 163.015 76.2154 158 84L169 81L167 86L167 87C169.499 92.9459 162.39 98.0531 160 103L170 100L167 106L167 107L167 115L173 114L169 118L173 117L173 124L174 124L174 113L229 109L229 261L231 261L231 107C210.114 107 190.396 107.324 170 112C170.647 103.631 180.164 103.438 187 102.25C204.374 99.2315 220.592 99.952 238 100L238 265L193 251.975L169 245.781L151 253.247L133 245.814L73 262L73 149L73 121L74.6034 110.603L89 109L128 112L128 120L134 117L134 116L130 113L136 115L135 112L71 107L71 226C71 236.672 75.658 259.521 65 265L65 100C82.2768 99.2582 98.8235 99.2658 116 102.25C121.467 103.2 130.317 107.67 133 101L145 104L145 103L141 102L134 86L137 87L137 86L133 80L145 84L136 63L151 66L154 71L156 66L147 60L146 60L147 65L134 58C134.027 67.626 136.494 75.7513 143 83L132 77C132.025 86.0533 134.183 93.92 140 101L130 96L131 103C108.185 102.005 86.2073 94.6915 63 99L63 267L107 254.659L133 247.832L152 254.956L171 247.897L240 266L240 99C219.185 95.1356 192.026 97.2075 172 104L173 96L163 101C168.89 93.8318 170.994 86.1393 171 77L160 83C166.462 75.8003 168.921 67.5765 169 58L160 63C162.137 57.1375 163.485 48.9224 161 43z"/>
<path style="fill:#63a239; stroke:none;" d="M76 44L76 45L79 45L76 44z"/>
<path style="fill:#acbd66; stroke:none;" d="M79.6667 44.3333L80.3333 44.6667L79.6667 44.3333M96 44L97 45L96 44M115 44L115 45L118 45L115 44z"/>
<path style="fill:#63a239; stroke:none;" d="M118.667 44.3333L119.333 44.6667L118.667 44.3333M95 45L94 47L96 47L95 45z"/>
<path style="fill:#acbd66; stroke:none;" d="M99 45L100 46L99 45z"/>
<path style="fill:#63a239; stroke:none;" d="M162 45L162 57L163 57L162 45M100 46L101 47L100 46M106 46L107 47L106 46M144.333 46.6667L144.667 47.3333L144.333 46.6667z"/>
<path style="fill:#acbd66; stroke:none;" d="M153 46L153 50L154 50L153 46z"/>
<path style="fill:#63a239; stroke:none;" d="M87 47L89 49L87 47z"/>
<path style="fill:#acbd66; stroke:none;" d="M88 47L88 48L94 48L88 47M102 47L102 48L108 48L102 47z"/>
<path style="fill:#63a239; stroke:none;" d="M68 48L69 49L68 48z"/>
<path style="fill:#acbd66; stroke:none;" d="M68 49L68 50L71 51L71 50L69 50L69 49L80 49L68 49z"/>
<path style="fill:#63a239; stroke:none;" d="M80 48L80 51L81 51L80 48M115 48L115 51L116 51L115 48z"/>
<path style="fill:#acbd66; stroke:none;" d="M116 48L116 49C120.118 49 126.81 47.7584 126 51L127 51L128 51L128 49L116 48z"/>
<path style="fill:#63a239; stroke:none;" d="M127 48L128 49L127 48z"/>
<path style="fill:#d9c756; stroke:none;" d="M69 49L69 50L80 50L69 49z"/>
<path style="fill:#acbd66; stroke:none;" d="M90 49L91 50L90 49z"/>
<path style="fill:#63a239; stroke:none;" d="M105 49L106 50L105 49z"/>
<path style="fill:#d9c756; stroke:none;" d="M116 49L116 50L127 50L116 49z"/>
<path style="fill:#63a239; stroke:none;" d="M68 50L69 51L68 50z"/>
<path style="fill:#acbd66; stroke:none;" d="M75 50L76 51L75 50M79 50L80 51L79 50z"/>
<path style="fill:#63a239; stroke:none;" d="M91 50L92 51L91 50z"/>
<path style="fill:#acbd66; stroke:none;" d="M103 50L104 51L103 50z"/>
<path style="fill:#63a239; stroke:none;" d="M104 50L105 51L104 50z"/>
<path style="fill:#acbd66; stroke:none;" d="M116 50L117 51L116 50z"/>
<path style="fill:#63a239; stroke:none;" d="M143 50L143 54L144 54L143 50M92 51L94 53L92 51z"/>
<path style="fill:#acbd66; stroke:none;" d="M93 51L94 52L93 51M102 51L103 52L102 51M152 51L152 58L156 59L154 51L152 51M159 51L159 54L160 54L159 51z"/>
<path style="fill:#63a239; stroke:none;" d="M102.333 52.6667L102.667 53.3333L102.333 52.6667z"/>
<path style="fill:#acbd66; stroke:none;" d="M93 53L94 54L93 53z"/>
<path style="fill:#63a239; stroke:none;" d="M77.6667 54.3333L78.3333 54.6667L77.6667 54.3333z"/>
<path style="fill:#acbd66; stroke:none;" d="M79.6667 54.3333L80.3333 54.6667L79.6667 54.3333M102 54L103 55L102 54z"/>
<path style="fill:#63a239; stroke:none;" d="M114.333 54.6667L114.667 55.3333L114.333 54.6667z"/>
<path style="fill:#acbd66; stroke:none;" d="M115.667 54.3333L116.333 54.6667L115.667 54.3333z"/>
<path style="fill:#63a239; stroke:none;" d="M117 54L118 55L117 54M73.6667 55.3333L74.3333 55.6667L73.6667 55.3333z"/>
<path style="fill:#acbd66; stroke:none;" d="M75 55L76 56L75 55z"/>
<path style="fill:#d9c756; stroke:none;" d="M69 59L81 56C77.13 54.4931 71.6206 55.7443 69 59z"/>
<path style="fill:#63a239; stroke:none;" d="M81 55L82 56L81 55M92 55L93 56L92 55M97.6667 55.3333L98.3333 55.6667L97.6667 55.3333M103.333 55.6667L103.667 56.3333L103.333 55.6667z"/>
<path style="fill:#d9c756; stroke:none;" d="M115 55L115 56L125 60L115 55z"/>
<path style="fill:#acbd66; stroke:none;" d="M118 55L119 56L118 55z"/>
<path style="fill:#63a239; stroke:none;" d="M119 55L120 56L119 55z"/>
<path style="fill:#acbd66; stroke:none;" d="M158 55L159 56L158 55z"/>
<path style="fill:#63a239; stroke:none;" d="M69.6667 56.3333L70.3333 56.6667L69.6667 56.3333z"/>
<path style="fill:#acbd66; stroke:none;" d="M71.6667 56.3333L72.3333 56.6667L71.6667 56.3333M79 56L80 57L79 56z"/>
<path style="fill:#63a239; stroke:none;" d="M80 56L81 57L80 56z"/>
<path style="fill:#acbd66; stroke:none;" d="M92 56L93 57L92 56M95 56L96 57L95 56z"/>
<path style="fill:#63a239; stroke:none;" d="M96 56L97 57L96 56M99 56L100 57L99 56z"/>
<path style="fill:#acbd66; stroke:none;" d="M100 56L101 57L100 56M115 56L116 57L115 56M120 56L121 57L120 56z"/>
<path style="fill:#63a239; stroke:none;" d="M121.667 56.3333L122.333 56.6667L121.667 56.3333M68.3333 57.6667L68.6667 58.3333L68.3333 57.6667z"/>
<path style="fill:#acbd66; stroke:none;" d="M75.6667 57.3333L76.3333 57.6667L75.6667 57.3333z"/>
<path style="fill:#63a239; stroke:none;" d="M77 57L78 58L77 57M91.3333 57.6667L91.6667 58.3333L91.3333 57.6667M94 57L95 58L94 57M101 57L102 58L101 57z"/>
<path style="fill:#acbd66; stroke:none;" d="M103.333 57.6667L103.667 58.3333L103.333 57.6667z"/>
<path style="fill:#63a239; stroke:none;" d="M116 57L116 58L120 59L120 58L116 57z"/>
<path style="fill:#acbd66; stroke:none;" d="M118 57L119 58L118 57M123 57L124 58L123 57z"/>
<path style="fill:#63a239; stroke:none;" d="M124 57L125 58L124 57M134 57L135 58L134 57M144.333 57.6667L144.667 58.3333L144.333 57.6667M168 57L169 58L168 57z"/>
<path style="fill:#acbd66; stroke:none;" d="M72 58L73 59L72 58z"/>
<path style="fill:#63a239; stroke:none;" d="M73.6667 58.3333L74.3333 58.6667L73.6667 58.3333z"/>
<path style="fill:#acbd66; stroke:none;" d="M92 58L93 59L92 58z"/>
<path style="fill:#63a239; stroke:none;" d="M93 58L94 59L93 58M102 58L103 59L102 58M104.333 58.6667L104.667 59.3333L104.333 58.6667z"/>
<path style="fill:#acbd66; stroke:none;" d="M120 58L121 59L120 58M125.333 58.6667L125.667 59.3333L125.333 58.6667z"/>
<path style="fill:#63a239; stroke:none;" d="M135 58L136 59L135 58M167 58L168 59L167 58M197 58L197 59L203 59L197 58M214 58L214 59L219 59L214 58M69.6667 59.3333L70.3333 59.6667L69.6667 59.3333M81 59L80 61L81 59z"/>
<path style="fill:#acbd66; stroke:none;" d="M81 60L81 61L84 61L81 60z"/>
<path style="fill:#63a239; stroke:none;" d="M83 59L84 60L83 59z"/>
<path style="fill:#acbd66; stroke:none;" d="M112 59L112 60L115 61L112 59z"/>
<path style="fill:#63a239; stroke:none;" d="M121 59L122 60L121 59z"/>
<path style="fill:#acbd66; stroke:none;" d="M122.667 59.3333L123.333 59.6667L122.667 59.3333z"/>
<path style="fill:#63a239; stroke:none;" d="M136 59L137 60L136 59M145 59L145 62L146 62L145 59M161.333 59.6667L161.667 60.3333L161.333 59.6667M166 59L167 60L166 59M169 59L169 63L170 63L169 59z"/>
<path style="fill:#d9c756; stroke:none;" d="M178 66C184.67 69.6781 182 82.2978 182 89C190.733 87.5425 187 66.1312 187 59C182.253 59.3603 179.373 61.3764 178 66z"/>
<path style="fill:#63a239; stroke:none;" d="M187 59L187 89L188 89L187 59M195 59L194 61L195 59z"/>
<path style="fill:#acbd66; stroke:none;" d="M196 59L194 62L196 59z"/>
<path style="fill:#d9c756; stroke:none;" d="M202 79L202 84L194 82C194.882 87.6511 201.908 92.1705 205.821 85.7716C209.257 80.1523 209.03 53.4076 197.109 60.0285C188.22 64.9654 192.663 78.8894 202 79z"/>
<path style="fill:#63a239; stroke:none;" d="M204 59L205 60L204 59M211.667 59.3333L212.333 59.6667L211.667 59.3333z"/>
<path style="fill:#d9c756; stroke:none;" d="M215 69L216 63L223 66C222.125 60.3946 214.887 55.6312 211.028 62.1481C207.749 67.6859 209.013 97.1965 220.682 87.3966C226.607 82.4213 224.168 67.3039 215 69z"/>
<path style="fill:#acbd66; stroke:none;" d="M220 59L222 61L220 59z"/>
<path style="fill:#63a239; stroke:none;" d="M221 59L222 60L221 59z"/>
<path style="fill:#d9c756; stroke:none;" d="M225 59L225 64L234 64L228 88C235.598 89.7292 239.694 65.6751 240 59L225 59z"/>
<path style="fill:#63a239; stroke:none;" d="M240 59L240 64L241 64L240 59z"/>
<path style="fill:#d9c756; stroke:none;" d="M82 60L74 67C77.2566 65.7643 82.0946 63.9167 82 60z"/>
<path style="fill:#63a239; stroke:none;" d="M111 60L115 64L111 60z"/>
<path style="fill:#d9c756; stroke:none;" d="M112 60L121 66L121 65L112 60z"/>
<path style="fill:#63a239; stroke:none;" d="M115 60L116 61L115 60M124 60L125 61L124 60M137.667 60.3333L138.333 60.6667L137.667 60.3333M164.667 60.3333L165.333 60.6667L164.667 60.3333M180 60L177 62L177 63L181 61L180 60z"/>
<path style="fill:#acbd66; stroke:none;" d="M181 60L182 61L181 60z"/>
<path style="fill:#63a239; stroke:none;" d="M205 60L206 61L205 60z"/>
<path style="fill:#acbd66; stroke:none;" d="M211 60L212 61L211 60M79 61L80 62L79 61z"/>
<path style="fill:#63a239; stroke:none;" d="M83 61L84 62L83 61M116 61L117 62L116 61M139 61L140 62L139 61M160 61L163 63L163 62L160 61M163 61L164 62L163 61z"/>
<path style="fill:#acbd66; stroke:none;" d="M180 61L181 62L180 61z"/>
<path style="fill:#63a239; stroke:none;" d="M206 61L207 62L206 61z"/>
<path style="fill:#acbd66; stroke:none;" d="M210 61L211 62L210 61z"/>
<path style="fill:#63a239; stroke:none;" d="M222 61L223 62L222 61M77 62L78 63L77 62z"/>
<path style="fill:#acbd66; stroke:none;" d="M78 62L79 63L78 62z"/>
<path style="fill:#63a239; stroke:none;" d="M82 62L83 63L82 62z"/>
<path style="fill:#acbd66; stroke:none;" d="M117 62L118 63L117 62z"/>
<path style="fill:#63a239; stroke:none;" d="M140.667 62.3333L141.333 62.6667L140.667 62.3333z"/>
<path style="fill:#acbd66; stroke:none;" d="M178 62L179 63L178 62z"/>
<path style="fill:#63a239; stroke:none;" d="M193 62L194 63L193 62z"/>
<path style="fill:#acbd66; stroke:none;" d="M206 62L207 63L206 62z"/>
<path style="fill:#63a239; stroke:none;" d="M209.333 62.6667L209.667 63.3333L209.333 62.6667M76 63L77 64L76 63z"/>
<path style="fill:#acbd66; stroke:none;" d="M80 63L81 64L80 63z"/>
<path style="fill:#63a239; stroke:none;" d="M86.6667 63.3333L87.3333 63.6667L86.6667 63.3333M108 63L107 64L108 67L109 67L108 64L111 65L108 63z"/>
<path style="fill:#acbd66; stroke:none;" d="M115 63L116 64L115 63M118 63L119 64L118 63z"/>
<path style="fill:#63a239; stroke:none;" d="M119 63L120 64L119 63M142.667 63.3333L143.333 63.6667L142.667 63.3333M146 63L145 65L147 65L146 63z"/>
<path style="fill:#acbd66; stroke:none;" d="M177 63L177 66L178 66L177 63M193 63L194 64L193 63M200 63L201 69L202 69L200 63z"/>
<path style="fill:#63a239; stroke:none;" d="M207 63L207 66L208 66L207 63z"/>
<path style="fill:#acbd66; stroke:none;" d="M216 63L217 64L216 63z"/>
<path style="fill:#63a239; stroke:none;" d="M223 63L223 66L224 66L223 63z"/>
<path style="fill:#acbd66; stroke:none;" d="M75 64L76 65L75 64z"/>
<path style="fill:#63a239; stroke:none;" d="M79 64L80 65L79 64z"/>
<path style="fill:#acbd66; stroke:none;" d="M85 64L86 65L85 64z"/>
<path style="fill:#d9c756; stroke:none;" d="M86 64L81 73C83.8856 70.6415 86.8299 67.9083 86 64z"/>
<path style="fill:#acbd66; stroke:none;" d="M87.3333 64.6667L87.6667 65.3333L87.3333 64.6667z"/>
<path style="fill:#d9c756; stroke:none;" d="M108 64L115 73L108 64z"/>
<path style="fill:#acbd66; stroke:none;" d="M116 64L117 65L116 64z"/>
<path style="fill:#63a239; stroke:none;" d="M120 64L121 65L120 64M199.667 64.3333L200.333 64.6667L199.667 64.3333z"/>
<path style="fill:#acbd66; stroke:none;" d="M209 64L209 83L210 83L209 64z"/>
<path style="fill:#63a239; stroke:none;" d="M215 66L217 68L223 67L223 66L216 64L215 66z"/>
<path style="fill:#acbd66; stroke:none;" d="M225 64L225 65L234 65L225 64M239 64L240 65L239 64z"/>
<path style="fill:#63a239; stroke:none;" d="M73 65L74 66L73 65z"/>
<path style="fill:#acbd66; stroke:none;" d="M74 65L75 66L74 65M77 65L78 66L77 65z"/>
<path style="fill:#63a239; stroke:none;" d="M78 65L79 66L78 65M84 65L85 66L84 65z"/>
<path style="fill:#acbd66; stroke:none;" d="M108 65L109 66L108 65M110 65L111 66L110 65z"/>
<path style="fill:#63a239; stroke:none;" d="M117 65L118 66L117 65M121 65L120 68L121 65z"/>
<path style="fill:#acbd66; stroke:none;" d="M157 65L158 66L157 65z"/>
<path style="fill:#63a239; stroke:none;" d="M168 65L168 69L169 69L168 65M192 65L192 72L193 72L192 65z"/>
<path style="fill:#089019; stroke:none;" d="M199 65L199 74L201 74L201 65L199 65M216 65L215 68L218 66L216 65z"/>
<path style="fill:#acbd66; stroke:none;" d="M218 65L219 66L218 65z"/>
<path style="fill:#63a239; stroke:none;" d="M233.333 65.6667L233.667 66.3333L233.333 65.6667M239 65L240 66L239 65z"/>
<path style="fill:#acbd66; stroke:none;" d="M73 66L75 68L73 66M76 66L77 67L76 66M84 66L85 67L84 66M91.6667 66.3333L92.3333 66.6667L91.6667 66.3333z"/>
<path style="fill:#63a239; stroke:none;" d="M102 66L103 67L102 66z"/>
<path style="fill:#acbd66; stroke:none;" d="M102 67L102 68L105 68L102 67z"/>
<path style="fill:#63a239; stroke:none;" d="M104 66L105 67L104 66z"/>
<path style="fill:#acbd66; stroke:none;" d="M111 66L112 67L111 66z"/>
<path style="fill:#63a239; stroke:none;" d="M118 66L119 67L118 66z"/>
<path style="fill:#acbd66; stroke:none;" d="M119.667 66.3333L120.333 66.6667L119.667 66.3333z"/>
<path style="fill:#63a239; stroke:none;" d="M134 66L134 70L135 70L134 66z"/>
<path style="fill:#d9c756; stroke:none;" d="M152 66L153 67L152 66z"/>
<path style="fill:#63a239; stroke:none;" d="M177.667 66.3333L178.333 66.6667L177.667 66.3333z"/>
<path style="fill:#acbd66; stroke:none;" d="M179.667 66.3333L180.333 66.6667L179.667 66.3333M207 66L207 82L208 82L207 66z"/>
<path style="fill:#63a239; stroke:none;" d="M73 67L74 68L73 67M75 67L76 68L75 67z"/>
<path style="fill:#acbd66; stroke:none;" d="M83 67L84 68L83 67z"/>
<path style="fill:#63a239; stroke:none;" d="M86 67L87 68L86 67M90 67L91 68L90 67z"/>
<path style="fill:#d9c756; stroke:none;" d="M91 67L89 77L90 77L93 67L91 67z"/>
<path style="fill:#63a239; stroke:none;" d="M96 67L96 83L97 83L96 67z"/>
<path style="fill:#acbd66; stroke:none;" d="M97.6667 67.3333L98.3333 67.6667L97.6667 67.3333z"/>
<path style="fill:#d9c756; stroke:none;" d="M103 67L106 78L107 78L103 67z"/>
<path style="fill:#acbd66; stroke:none;" d="M109 67L110 68L109 67z"/>
<path style="fill:#63a239; stroke:none;" d="M112 67L113 68L112 67z"/>
<path style="fill:#acbd66; stroke:none;" d="M181.333 67.6667L181.667 68.3333L181.333 67.6667z"/>
<path style="fill:#63a239; stroke:none;" d="M238.333 67.6667L238.667 68.3333L238.333 67.6667M82 68L81 70L82 68z"/>
<path style="fill:#acbd66; stroke:none;" d="M85 68L86 69L85 68M90.3333 68.6667L90.6667 69.3333L90.3333 68.6667z"/>
<path style="fill:#d9c756; stroke:none;" d="M97 68L97 83L99 83L99 68L97 68z"/>
<path style="fill:#63a239; stroke:none;" d="M102.333 68.6667L102.667 69.3333L102.333 68.6667M105.333 68.6667L105.667 69.3333L105.333 68.6667z"/>
<path style="fill:#acbd66; stroke:none;" d="M110 68L112 70L110 68z"/>
<path style="fill:#63a239; stroke:none;" d="M113 68L114 69L113 68M215 68L216 69L215 68z"/>
<path style="fill:#acbd66; stroke:none;" d="M216 68L217 69L216 68M220 68L221 69L220 68z"/>
<path style="fill:#63a239; stroke:none;" d="M221 68L222 69L221 68M232 68L233 69L232 68z"/>
<path style="fill:#acbd66; stroke:none;" d="M82 69L83 70L82 69M84 69L85 70L84 69M92 69L93 70L92 69z"/>
<path style="fill:#63a239; stroke:none;" d="M99 69L99 75L100 75L99 69M110 69L111 70L110 69M114 69L115 70L114 69M181.333 69.6667L181.667 70.3333L181.333 69.6667M201.333 69.6667L201.667 70.3333L201.333 69.6667M222 69L223 70L222 69z"/>
<path style="fill:#acbd66; stroke:none;" d="M232 69L233 70L232 69M237 69L238 70L237 69M81 70L82 71L81 70z"/>
<path style="fill:#63a239; stroke:none;" d="M84 70L85 71L84 70M89.3333 70.6667L89.6667 71.3333L89.3333 70.6667M92.3333 70.6667L92.6667 71.3333L92.3333 70.6667z"/>
<path style="fill:#acbd66; stroke:none;" d="M105 70L106 71L105 70z"/>
<path style="fill:#63a239; stroke:none;" d="M111 70L112 71L111 70z"/>
<path style="fill:#acbd66; stroke:none;" d="M114 70L115 71L114 70z"/>
<path style="fill:#63a239; stroke:none;" d="M135.333 70.6667L135.667 71.3333L135.333 70.6667M167.333 70.6667L167.667 71.3333L167.333 70.6667z"/>
<path style="fill:#acbd66; stroke:none;" d="M222 70L223 71L222 70z"/>
<path style="fill:#63a239; stroke:none;" d="M231.333 70.6667L231.667 71.3333L231.333 70.6667M237 70L238 71L237 70M80.3333 71.6667L80.6667 72.3333L80.3333 71.6667M83 71L84 72L83 71M103 71L103 74L104 74L103 71M112 71L113 72L112 71M115 71L116 72L115 71z"/>
<path style="fill:#acbd66; stroke:none;" d="M181 71L181 87L182 87L181 71M201 71L201 74L202 74L201 71z"/>
<path style="fill:#63a239; stroke:none;" d="M223.333 71.6667L223.667 72.3333L223.333 71.6667z"/>
<path style="fill:#acbd66; stroke:none;" d="M82 72L83 73L82 72M89 72L90 73L89 72M91 72L92 73L91 72z"/>
<path style="fill:#63a239; stroke:none;" d="M106 72L107 73L106 72z"/>
<path style="fill:#acbd66; stroke:none;" d="M113 72L113 73L116 73L116 72L113 72M236 72L237 73L236 72z"/>
<path style="fill:#63a239; stroke:none;" d="M81.6667 73.3333L82.3333 73.6667L81.6667 73.3333M91.3333 73.6667L91.6667 74.3333L91.3333 73.6667z"/>
<path style="fill:#acbd66; stroke:none;" d="M106.333 73.6667L106.667 74.3333L106.333 73.6667z"/>
<path style="fill:#63a239; stroke:none;" d="M113 73L114 74L113 73M115 73L116 74L115 73M136.333 73.6667L136.667 74.3333L136.333 73.6667M166.333 73.6667L166.667 74.3333L166.333 73.6667z"/>
<path style="fill:#acbd66; stroke:none;" d="M215 73L216 74L215 73z"/>
<path style="fill:#63a239; stroke:none;" d="M216 73L216 84L217 84L216 73z"/>
<path style="fill:#acbd66; stroke:none;" d="M217 73L218 74L217 73M223 73L223 84L224 84L223 73z"/>
<path style="fill:#63a239; stroke:none;" d="M230.333 73.6667L230.667 74.3333L230.333 73.6667M236.333 73.6667L236.667 74.3333L236.333 73.6667M88.3333 74.6667L88.6667 75.3333L88.3333 74.6667z"/>
<path style="fill:#acbd66; stroke:none;" d="M104 74L105 75L104 74z"/>
<path style="fill:#63a239; stroke:none;" d="M199.667 74.3333L200.333 74.6667L199.667 74.3333z"/>
<path style="fill:#089019; stroke:none;" d="M216 74L216 83L217 83L216 74z"/>
<path style="fill:#63a239; stroke:none;" d="M104.333 75.6667L104.667 76.3333L104.333 75.6667M107 75L107 78L108 78L107 75M137 75L138 76L137 75z"/>
<path style="fill:#acbd66; stroke:none;" d="M152.667 75.3333L153.333 75.6667L152.667 75.3333z"/>
<path style="fill:#63a239; stroke:none;" d="M165.333 75.6667L165.667 76.3333L165.333 75.6667z"/>
<path style="fill:#acbd66; stroke:none;" d="M193.333 75.6667L193.667 76.3333L193.333 75.6667M230 75L231 76L230 75M88 76L88 77L91 77L91 76L88 76z"/>
<path style="fill:#63a239; stroke:none;" d="M132 76L133 77L132 76z"/>
<path style="fill:#acbd66; stroke:none;" d="M146 76L147 77L146 76z"/>
<path style="fill:#63a239; stroke:none;" d="M168 79L171 76L168 79M229 76L229 79L230 79L229 76z"/>
<path style="fill:#acbd66; stroke:none;" d="M235.333 76.6667L235.667 77.3333L235.333 76.6667z"/>
<path style="fill:#63a239; stroke:none;" d="M88 77L89 78L88 77M90 77L91 78L90 77M99 77L99 80L100 80L99 77z"/>
<path style="fill:#acbd66; stroke:none;" d="M105 77L106 78L105 77z"/>
<path style="fill:#63a239; stroke:none;" d="M138 77L139 78L138 77z"/>
<path style="fill:#acbd66; stroke:none;" d="M152 77L153 78L152 77M154 77L155 78L154 77z"/>
<path style="fill:#63a239; stroke:none;" d="M164 77L165 78L164 77M171 77L171 83L172 83L171 77M193 77L194 78L193 77M105.667 78.3333L106.333 78.6667L105.667 78.3333M134 78L135 79L134 78M194 78L195 79L194 78M235.333 78.6667L235.667 79.3333L235.333 78.6667M131 79L132 80L131 79M136 79L137 80L136 79M137 80L137 81L143 83L137 80M160 83L166 81C163.128 79.6262 162.017 80.6834 160 83M166 79L167 80L166 79M195 79L193 81L193 82L199 82L199 81L195 79z"/>
<path style="fill:#acbd66; stroke:none;" d="M196 79L196 80L200 80L196 79z"/>
<path style="fill:#63a239; stroke:none;" d="M200 79L199 83L199 84C201.36 82.4857 202.261 81.0465 200 79z"/>
<path style="fill:#089019; stroke:none;" d="M139 80L140 81L139 80z"/>
<path style="fill:#acbd66; stroke:none;" d="M152 80L153 86L149 87L149 85L144 85L152 88L153 98L154 98L155 86L155 85L152 83L152 81L154 81L152 80z"/>
<path style="fill:#089019; stroke:none;" d="M163 80L164 81L163 80M198 80L201 83L198 80z"/>
<path style="fill:#63a239; stroke:none;" d="M228.333 81.6667L228.667 82.3333L228.333 81.6667z"/>
<path style="fill:#acbd66; stroke:none;" d="M193.333 82.6667L193.667 83.3333L193.333 82.6667z"/>
<path style="fill:#faf9f5; stroke:none;" d="M197 82L198 83L197 82z"/>
<path style="fill:#acbd66; stroke:none;" d="M198 82L199 83L198 82z"/>
<path style="fill:#63a239; stroke:none;" d="M207 82L207 85L208 85L207 82z"/>
<path style="fill:#acbd66; stroke:none;" d="M234.333 82.6667L234.667 83.3333L234.333 82.6667M201 83L202 84L201 83z"/>
<path style="fill:#63a239; stroke:none;" d="M209 83L209 86L210 86L209 83z"/>
<path style="fill:#acbd66; stroke:none;" d="M215 83L216 84L215 83M217 83L218 84L217 83M228 83L228 86L229 86L228 83M157 84L158 85L157 84z"/>
<path style="fill:#63a239; stroke:none;" d="M193.333 84.6667L193.667 85.3333L193.333 84.6667z"/>
<path style="fill:#acbd66; stroke:none;" d="M216 84L217 85L216 84z"/>
<path style="fill:#63a239; stroke:none;" d="M223.333 84.6667L223.667 85.3333L223.333 84.6667M234 84L234 89L235 89L234 84M132 85L132 88L133 88L132 85z"/>
<path style="fill:#acbd66; stroke:none;" d="M206 85L207 86L206 85z"/>
<path style="fill:#63a239; stroke:none;" d="M170.333 86.6667L170.667 87.3333L170.333 86.6667z"/>
<path style="fill:#acbd66; stroke:none;" d="M194 86L197 89L194 86z"/>
<path style="fill:#63a239; stroke:none;" d="M206 86L207 87L206 86M210 86L211 87L210 86z"/>
<path style="fill:#acbd66; stroke:none;" d="M222 86L223 87L222 86z"/>
<path style="fill:#63a239; stroke:none;" d="M181.333 87.6667L181.667 88.3333L181.333 87.6667M194 87L195 88L194 87M205 87L206 88L205 87z"/>
<path style="fill:#acbd66; stroke:none;" d="M211 87L212 88L211 87M221 87L222 88L221 87z"/>
<path style="fill:#63a239; stroke:none;" d="M227.333 87.6667L227.667 88.3333L227.333 87.6667z"/>
<path style="fill:#acbd66; stroke:none;" d="M186 88L187 89L186 88z"/>
<path style="fill:#63a239; stroke:none;" d="M195 88L196 89L195 88z"/>
<path style="fill:#acbd66; stroke:none;" d="M203 88L204 89L203 88z"/>
<path style="fill:#63a239; stroke:none;" d="M204 88L205 89L204 88M212 88L213 89L212 88M220 88L221 89L220 88z"/>
<path style="fill:#acbd66; stroke:none;" d="M228 88L229 89L228 88M233 88L234 89L233 88z"/>
<path style="fill:#63a239; stroke:none;" d="M133.333 89.6667L133.667 90.3333L133.333 89.6667M169.333 89.6667L169.667 90.3333L169.333 89.6667M197 89L197 90L200 90L197 89z"/>
<path style="fill:#acbd66; stroke:none;" d="M200 89L201 90L200 89z"/>
<path style="fill:#63a239; stroke:none;" d="M201.667 89.3333L202.333 89.6667L201.667 89.3333M214 89L214 90L219 90L214 89M134.333 92.6667L134.667 93.3333L134.333 92.6667M168.333 92.6667L168.667 93.3333L168.333 92.6667M135.333 94.6667L135.667 95.3333L135.333 94.6667M167 94L168 95L167 94M172 94L171 96L173 96L172 94M130.667 95.3333L131.333 95.6667L130.667 95.3333M132 96L133 97L132 96M136.333 96.6667L136.667 97.3333L136.333 96.6667M166 96L167 97L166 96M170 96L171 97L170 96M70.6667 97.3333L71.3333 97.6667L70.6667 97.3333M75 97L75 98L97 98L75 97M133 97L134 98L133 97z"/>
<path style="fill:#acbd66; stroke:none;" d="M151.333 97.6667L151.667 98.3333L151.333 97.6667z"/>
<path style="fill:#63a239; stroke:none;" d="M169 97L170 98L169 97M209 97L209 98L233 98L209 97M63 98L63 99L66 99L63 98M98 98L98 99L106 99L98 98M134 98L135 99L134 98M137 98L136 99L140 101L137 98M165 98L163 101L167 99L165 98M168 98L169 99L168 98M197 98L197 99L205 99L197 98M237 98L237 99L240 99L237 98z"/>
<path style="fill:#d9c756; stroke:none;" d="M70 99L70 100L91 100L70 99M93 99L94 100L93 99z"/>
<path style="fill:#63a239; stroke:none;" d="M110 99L110 100L114 100L110 99M130 99L130 103L131 103L130 99z"/>
<path style="fill:#089019; stroke:none;" d="M137 99L138 100L137 99z"/>
<path style="fill:#63a239; stroke:none;" d="M189 99L189 100L193 100L189 99z"/>
<path style="fill:#d9c756; stroke:none;" d="M209 99L209 100L230 100L209 99z"/>
<path style="fill:#63a239; stroke:none;" d="M240 99L240 265L241 265L241 149C241 134.962 245.406 111.883 240 99z"/>
<path style="fill:#d9c756; stroke:none;" d="M65.6667 100.333L66.3333 100.667L65.6667 100.333z"/>
<path style="fill:#faf9f5; stroke:none;" d="M65 264L71 263L71 107C92.5065 105.303 111.775 108.303 133 111C130.284 104.299 124.504 104.005 118 102.92C105.999 100.917 94.1627 100 82 100C77.8229 100 66.9197 98.0034 65.3179 103.228C61.0392 117.185 65 138.36 65 153L65 264z"/>
<path style="fill:#d9c756; stroke:none;" d="M98 100L98 101L104 101L98 100z"/>
<path style="fill:#63a239; stroke:none;" d="M115 100L115 101L119 101L115 100z"/>
<path style="fill:#acbd66; stroke:none;" d="M151 100L151 104L148 107L152 109L150 108L150 109L154 113L157 106L157 105L154 100L151 100z"/>
<path style="fill:#63a239; stroke:none;" d="M172 100L172 104L173 104L172 100M183 100L183 101L188 101L183 100z"/>
<path style="fill:#d9c756; stroke:none;" d="M199.667 100.333L200.333 100.667L199.667 100.333z"/>
<path style="fill:#faf9f5; stroke:none;" d="M170 111C191.235 108.258 210.476 105.301 232 107L232 263L238 264L238 148L238 116C238 112.096 239.159 105.899 237.397 102.318C235.336 98.131 224.861 100 221 100C208.734 100 197.102 100.862 185 102.921C178.601 104.009 172.656 104.451 170 111z"/>
<path style="fill:#d9c756; stroke:none;" d="M202.667 100.333L203.333 100.667L202.667 100.333M237 100L238 101L237 100M109 101L109 102L112 102L109 101z"/>
<path style="fill:#63a239; stroke:none;" d="M121 101L121 102L124 102L121 101M179 101L179 102L182 102L179 101z"/>
<path style="fill:#d9c756; stroke:none;" d="M191 101L191 102L194 102L191 101M115 102L115 103L118 103L115 102z"/>
<path style="fill:#63a239; stroke:none;" d="M125 102L125 103L128 103L125 102M175 102L175 103L178 103L175 102z"/>
<path style="fill:#d9c756; stroke:none;" d="M185 102L185 103L188 103L185 102M121.667 103.333L122.333 103.667L121.667 103.333M180.667 103.333L181.333 103.667L180.667 103.333M126 104L127 105L126 104z"/>
<path style="fill:#acbd66; stroke:none;" d="M147 104L148 105L147 104z"/>
<path style="fill:#d9c756; stroke:none;" d="M176.667 104.333L177.333 104.667L176.667 104.333M172 105L173 106L172 105M75 106L75 107L103 107L75 106z"/>
<path style="fill:#acbd66; stroke:none;" d="M132 106L133 111L134 111L136 107L132 106z"/>
<path style="fill:#d9c756; stroke:none;" d="M170 106L170 110L171 110L172 106L170 106M200 106L200 107L228 107L200 106M105 107L105 108L112 108L105 107M190 107L190 108L199 108L190 107M231 107L231 217C231 229.46 235.116 251.003 229 262L232 263L232 154C232 140.747 236.107 119.17 231 107M116 108L116 109L120 109L116 108M183 108L183 109L186 109L183 108M73 262L74 262L74 110L78 110C73.166 108.416 73.0264 113.286 73.0008 117C72.9364 126.332 73 135.667 73 145L73 262z"/>
<path style="fill:#faf9f5; stroke:none;" d="M74 110L74 262C91.9923 256.894 114.323 246.172 132.985 245.612C138.946 245.433 143.434 252.443 150 252.903C158.282 253.483 162.022 246.177 169.015 245.639C174.729 245.199 182.491 248.893 188 250.424C201.659 254.222 215.498 257.683 229 262L229 110C211.004 106.659 192.815 110.699 175 113C174.977 121.29 172.821 127.708 169 135L176 133L169 156L178 152L172 175L181 170C180.627 178.691 179.017 188.383 172.815 194.907C164.438 203.719 155.001 203.295 155 217L147 217C148.736 203.249 138.483 203.706 130.185 194.91C124.051 188.408 122.179 178.678 122 170L131 175L124 152L134 156L127 132L134 135C130.179 127.708 128.023 121.291 128 113C109.763 110.645 92.4542 107.668 74 110z"/>
<path style="fill:#d9c756; stroke:none;" d="M102 109L102 110L108 110L102 109M122.667 109.333L123.333 109.667L122.667 109.333M132 109L133 110L132 109M178.667 109.333L179.333 109.667L178.667 109.333M195 109L195 110L201 110L195 109M226 109L226 110L229 110L226 109M112 110L112 111L116 111L112 110M127 110L127 111L130 111L127 110M173 110L173 111L176 111L173 110M187 110L187 111L191 111L187 110M119 111L119 112L122 112L119 111M170 111L170 112L173 112L170 111M182.667 111.333L183.333 111.667L182.667 111.333M124 112L124 113L128 113L124 112M176 112L176 113L179 113L176 112M174 113L175 114L174 113z"/>
<path style="fill:#acbd66; stroke:none;" d="M151 114L152 119C148.75 120.658 147.61 122.369 148 126L149 126L150 122L150 134L154 130L156 123L151 114z"/>
<path style="fill:#faf9f5; stroke:none;" d="M134 115L135 116L134 115z"/>
<path style="fill:#acbd66; stroke:none;" d="M166 115L164 119L165 119L166 115z"/>
<path style="fill:#faf9f5; stroke:none;" d="M168.667 115.333L169.333 115.667L168.667 115.333z"/>
<path style="fill:#acbd66; stroke:none;" d="M153 116L154 117L153 116z"/>
<path style="fill:#d9c756; stroke:none;" d="M174 116L174 122L175 122L174 116z"/>
<path style="fill:#acbd66; stroke:none;" d="M134 117L135 118L134 117M136 117L137 118L136 117M131 119L132 120L131 119M171 119L172 120L171 119M129 120L129 124L130 124L129 120M142 121L143 122L142 121M145 122L146 123L145 122M158 122L159 123L158 122z"/>
<path style="fill:#d9c756; stroke:none;" d="M152.667 124.333L153.333 124.667L152.667 124.333z"/>
<path style="fill:#acbd66; stroke:none;" d="M130 125L131 130L132 130L130 125z"/>
<path style="fill:#d9c756; stroke:none;" d="M152.333 126.667L152.667 127.333L152.333 126.667M130 128L131 129L130 128z"/>
<path style="fill:#acbd66; stroke:none;" d="M171.333 128.667L171.667 129.333L171.333 128.667M132 130L134 133L132 130M170 130L167 135L170 130z"/>
<path style="fill:#d9c756; stroke:none;" d="M127 132L127 140L128 140L127 132z"/>
<path style="fill:#acbd66; stroke:none;" d="M127 133L128 134L127 133M134 133L138 137L138 136L134 133M174 133L169 136L174 142L175 142L174 133z"/>
<path style="fill:#d9c756; stroke:none;" d="M175 133L175 140L176 140L175 133z"/>
<path style="fill:#acbd66; stroke:none;" d="M128 134L128 143L129 143L130 136L134 137L128 134z"/>
<path style="fill:#d9c756; stroke:none;" d="M130 134L131 135L130 134z"/>
<path style="fill:#acbd66; stroke:none;" d="M153 134L149 140L154 141L152 139L152 138L153 134z"/>
<path style="fill:#d9c756; stroke:none;" d="M172 134L173 135L172 134z"/>
<path style="fill:#acbd66; stroke:none;" d="M165 137L163 138L163 139L165 137M130 139L131 140L130 139M141 140L142 141L141 140M171 140L172 141L171 140M146 142L147 143L146 142M150 142L150 143L154 145L150 142M156 143L157 144L156 143M150 144L152 155L153 155L153 144L150 144M173.333 144.667L173.667 145.333L173.333 144.667M172.333 146.667L172.667 147.333L172.333 146.667M130 147L130 149L132 149L130 147M171 149L170 152L171 149M131 150L133 152L133 150L131 150M150.333 151.667L150.667 152.333L150.333 151.667z"/>
<path style="fill:#d9c756; stroke:none;" d="M124.333 152.667L124.667 153.333L124.333 152.667z"/>
<path style="fill:#acbd66; stroke:none;" d="M125 152L125 158L130 156L125 152M133 152L136 156L133 152M169 152L167 156L169 152M177 152L173 155L178 159L177 152z"/>
<path style="fill:#d9c756; stroke:none;" d="M175 153L176 154L175 153z"/>
<path style="fill:#acbd66; stroke:none;" d="M150 155L148 162L148 166L152 167L152 171L153 171L155 166L154 159L153 159L153 161L152 161L155 157L155 156L150 155M131.667 156.333L132.333 156.667L131.667 156.333M136 156L137 157L136 156M166 156L168 158L166 156M170.667 156.333L171.333 156.667L170.667 156.333M134 157L135 158L134 157M128 158L129 159L128 158M139 158L141 160L139 158M158 161L159 162L158 161M126.333 162.667L126.667 163.333L126.333 162.667M146 162L147 163L146 162M156 162L157 163L156 162M176 162L177 163L176 162z"/>
<path style="fill:#d9c756; stroke:none;" d="M83 163L84 164L83 163M219 163L220 164L219 163z"/>
<path style="fill:#acbd66; stroke:none;" d="M83 164L82 167L83 164M219 164L220 165L219 164M127 165L127 168L128 168L127 165M175.333 165.667L175.667 166.333L175.333 165.667z"/>
<path style="fill:#d9c756; stroke:none;" d="M216 165L216 168L217 168L218 165L216 165M219 165L219 171L222 171L224 167L219 169L219 165z"/>
<path style="fill:#acbd66; stroke:none;" d="M223.333 165.667L223.667 166.333L223.333 165.667z"/>
<path style="fill:#d9c756; stroke:none;" d="M227 165L228 166L227 165M80 166L80 167L85 166L80 166z"/>
<path style="fill:#acbd66; stroke:none;" d="M213 166L214 167L213 166M227 166L228 167L227 166z"/>
<path style="fill:#d9c756; stroke:none;" d="M75 167L75 169L77 169L75 167z"/>
<path style="fill:#acbd66; stroke:none;" d="M76 167L76 168L81 168L76 167M174.333 167.667L174.667 168.333L174.333 167.667z"/>
<path style="fill:#d9c756; stroke:none;" d="M227 167L223 170L223 171C226.271 171.503 228.138 170.468 227 167z"/>
<path style="fill:#acbd66; stroke:none;" d="M84.3333 168.667L84.6667 169.333L84.3333 168.667M128.333 168.667L128.667 169.333L128.333 168.667M138 169L139 170L138 169M218 169L219 170L218 169M222.333 169.667L222.667 170.333L222.333 169.667z"/>
<path style="fill:#d9c756; stroke:none;" d="M122 170L122 171L127 174L122 170z"/>
<path style="fill:#acbd66; stroke:none;" d="M173 170L174 171L173 170z"/>
<path style="fill:#d9c756; stroke:none;" d="M177 173L181 171L177 173z"/>
<path style="fill:#acbd66; stroke:none;" d="M224 170L225 171L224 170M226 170L227 171L226 170z"/>
<path style="fill:#d9c756; stroke:none;" d="M82 171L82 172L86 171L82 171z"/>
<path style="fill:#acbd66; stroke:none;" d="M84 171L85 172L84 171M122 171L123 179L124 179L124 176C127.554 177.568 131.993 178.725 133 174L132 174L122 171M130.333 171.667L130.667 172.333L130.333 171.667M150 171L149 172L149 174L150 183C147.497 183.415 147.497 186.585 150 187C149.617 189.616 149.287 191 152 191L150 200L149 201L147 200L150 202L150 203L144 204L144 205C148.729 207.607 147.999 212.116 148 217L155 217L158 205C153.339 197.155 152.759 189.357 156 181L153 180L152 171L150 171M172.333 171.667L172.667 172.333L172.333 171.667M173 175L174 178L179 175L179 180L180 180L181 171L173 175z"/>
<path style="fill:#d9c756; stroke:none;" d="M79 172L81 178L84 178L79 172z"/>
<path style="fill:#acbd66; stroke:none;" d="M80 172L80 173L83 173L80 172z"/>
<path style="fill:#d9c756; stroke:none;" d="M122 172L122 177L123 177L122 172M180 172L180 176L181 176L180 172M217 172L218 173L217 172z"/>
<path style="fill:#acbd66; stroke:none;" d="M218.667 172.333L219.333 172.667L218.667 172.333z"/>
<path style="fill:#d9c756; stroke:none;" d="M220 172L219 174L221 174L220 172M76 173L77 174L76 173z"/>
<path style="fill:#acbd66; stroke:none;" d="M77.6667 173.333L78.3333 173.667L77.6667 173.333z"/>
<path style="fill:#faf9f5; stroke:none;" d="M82 173L84 178L85 178L85 173L82 173z"/>
<path style="fill:#acbd66; stroke:none;" d="M85 173L86 174L85 173M221.667 173.333L222.333 173.667L221.667 173.333z"/>
<path style="fill:#d9c756; stroke:none;" d="M223.333 173.667L223.667 174.333L223.333 173.667M85 174L85 179L86 179L85 174M124 174L125 175L124 174M128 174L129 175L128 174M174 174L175 175L174 174z"/>
<path style="fill:#acbd66; stroke:none;" d="M224 174L225 175L224 174M81.3333 175.667L81.6667 176.333L81.3333 175.667M170 175L171 176L170 175M225 175L225 178L226 178L225 175M86 176L87 177L86 176M149 176L150 177L149 176M172 176L173 177L172 176M80 177L79 180L80 177M82 177L83 178L82 177M85 177L86 178L85 177z"/>
<path style="fill:#d9c756; stroke:none;" d="M79 178L80 179L79 178z"/>
<path style="fill:#acbd66; stroke:none;" d="M83.6667 178.333L84.3333 178.667L83.6667 178.333M135 178L136 179L135 178M216.667 178.333L217.333 178.667L216.667 178.333z"/>
<path style="fill:#d9c756; stroke:none;" d="M218 178L215 180L215 181L218 182L218 178z"/>
<path style="fill:#acbd66; stroke:none;" d="M224 178L225 179L224 178z"/>
<path style="fill:#d9c756; stroke:none;" d="M78.3333 179.667L78.6667 180.333L78.3333 179.667z"/>
<path style="fill:#acbd66; stroke:none;" d="M84 180L84 181L88 180L84 180z"/>
<path style="fill:#faf9f5; stroke:none;" d="M217 179L218 180L217 179z"/>
<path style="fill:#acbd66; stroke:none;" d="M219 179L219 180L222 180L219 179z"/>
<path style="fill:#d9c756; stroke:none;" d="M222 181L225 180L222 181M83 180L80 182L80 183L85 181L83 180M86 180L87 181L86 180z"/>
<path style="fill:#acbd66; stroke:none;" d="M156 180L157 181L156 180M216 180L217 181L216 180M82 181L83 182L82 181M218.333 181.667L218.667 182.333L218.333 181.667z"/>
<path style="fill:#d9c756; stroke:none;" d="M219.333 181.667L219.667 182.333L219.333 181.667z"/>
<path style="fill:#acbd66; stroke:none;" d="M124.333 182.667L124.667 183.333L124.333 182.667M178.333 182.667L178.667 183.333L178.333 182.667M220 182L221 183L220 182z"/>
<path style="fill:#d9c756; stroke:none;" d="M221.333 182.667L221.667 183.333L221.333 182.667z"/>
<path style="fill:#acbd66; stroke:none;" d="M80 183L85 188L85 187L80 183z"/>
<path style="fill:#d9c756; stroke:none;" d="M217.667 183.333L218.333 183.667L217.667 183.333z"/>
<path style="fill:#acbd66; stroke:none;" d="M222 183L223 184L222 183z"/>
<path style="fill:#d9c756; stroke:none;" d="M223 183L224 184L223 183z"/>
<path style="fill:#acbd66; stroke:none;" d="M125 184L125 188L126 188L125 184M177 184L174 192L177 184M217 184L216 188L217 188L217 184z"/>
<path style="fill:#d9c756; stroke:none;" d="M87 185L89 187L87 185z"/>
<path style="fill:#acbd66; stroke:none;" d="M88.6667 185.333L89.3333 185.667L88.6667 185.333z"/>
<path style="fill:#d9c756; stroke:none;" d="M90.6667 185.333L91.3333 185.667L90.6667 185.333z"/>
<path style="fill:#acbd66; stroke:none;" d="M134 185L135 186L134 185z"/>
<path style="fill:#d9c756; stroke:none;" d="M213 185L214 186L213 185M80 186L81 187L80 186M85.3333 186.667L85.6667 187.333L85.3333 186.667z"/>
<path style="fill:#acbd66; stroke:none;" d="M86.6667 186.333L87.3333 186.667L86.6667 186.333M91 186L92 187L91 186M213.667 186.333L214.333 186.667L213.667 186.333z"/>
<path style="fill:#d9c756; stroke:none;" d="M215 186L214 188L216 188L215 186M217 186L217 189L218 189L217 186M81 187L82 188L81 187M94 187L95 188L94 187z"/>
<path style="fill:#acbd66; stroke:none;" d="M154.333 187.667L154.667 188.333L154.333 187.667z"/>
<path style="fill:#d9c756; stroke:none;" d="M177.333 187.667L177.667 188.333L177.333 187.667M87 188L87 189L90 189L90 188L87 188z"/>
<path style="fill:#acbd66; stroke:none;" d="M88 188L89 189L88 188M90 188L90 189L93 190L90 188M94 188L95 189L94 188M126 188L128 191L126 188M218.667 188.333L219.333 188.667L218.667 188.333M85 192L86 192L88 190L85 192z"/>
<path style="fill:#faf9f5; stroke:none;" d="M89.0895 190.06C85.5436 190.679 86.1915 196.315 89.9059 195.248C93.0419 194.348 92.5511 189.456 89.0895 190.06z"/>
<path style="fill:#d9c756; stroke:none;" d="M91 189L92 190L91 189z"/>
<path style="fill:#acbd66; stroke:none;" d="M164.667 189.333L165.333 189.667L164.667 189.333z"/>
<path style="fill:#d9c756; stroke:none;" d="M219.667 189.333L220.333 189.667L219.667 189.333M86 190L87 191L86 190M92.6667 190.333L93.3333 190.667L92.6667 190.333z"/>
<path style="fill:#acbd66; stroke:none;" d="M210 190L210 192L212 192L210 190z"/>
<path style="fill:#d9c756; stroke:none;" d="M84 191L86 194L84 191z"/>
<path style="fill:#acbd66; stroke:none;" d="M93 191L93 194L94 194L93 191M128 191L129 192L128 191z"/>
<path style="fill:#d9c756; stroke:none;" d="M209 191L210 192L209 191M210 192L213 198L211 197L216 199L213 191L210 192z"/>
<path style="fill:#acbd66; stroke:none;" d="M173 192L168 198L173 192z"/>
<path style="fill:#d9c756; stroke:none;" d="M92 199L96 200L94 198L97 196L96 193C92.6934 194.274 91.8604 195.454 92 199z"/>
<path style="fill:#acbd66; stroke:none;" d="M129 193L133 197L129 193z"/>
<path style="fill:#faf9f5; stroke:none;" d="M212 193L214 195L212 193z"/>
<path style="fill:#acbd66; stroke:none;" d="M214 193L215 194L214 193M85 194L86 195L85 194z"/>
<path style="fill:#faf9f5; stroke:none;" d="M94 194L92 197L94 194z"/>
<path style="fill:#acbd66; stroke:none;" d="M160 194L161 195L160 194M215.667 194.333L216.333 194.667L215.667 194.333z"/>
<path style="fill:#d9c756; stroke:none;" d="M85 195L85 196L90 198L90 197L85 195z"/>
<path style="fill:#acbd66; stroke:none;" d="M91 195L92 196L91 195M95 195L94 197L96 197L95 195z"/>
<path style="fill:#d9c756; stroke:none;" d="M216.667 195.333L217.333 195.667L216.667 195.333z"/>
<path style="fill:#acbd66; stroke:none;" d="M88 196L88 197L91 197L88 196z"/>
<path style="fill:#d9c756; stroke:none;" d="M205.333 196.667L205.667 197.333L205.333 196.667z"/>
<path style="fill:#acbd66; stroke:none;" d="M206 196L208 199L206 196z"/>
<path style="fill:#d9c756; stroke:none;" d="M207 196L209 201L210 201L207 196z"/>
<path style="fill:#faf9f5; stroke:none;" d="M94 197L95 198L94 197z"/>
<path style="fill:#acbd66; stroke:none;" d="M133.667 197.333L134.333 197.667L133.667 197.333M209.667 197.333L210.333 197.667L209.667 197.333M91 198L92 199L91 198M135 198L137 200L135 198M157 198L156 200L157 198M167 198L168 199L167 198M214 198L215 199L214 198z"/>
<path style="fill:#d9c756; stroke:none;" d="M89 199L90 200L89 199z"/>
<path style="fill:#acbd66; stroke:none;" d="M90 199L91 200L90 199M146 199L147 200L146 199M148 199L149 200L148 199M166 199L167 200L166 199M199.667 199.333L200.333 199.667L199.667 199.333M209 199L210 200L209 199M89 200L90 201L89 200M94 200L95 201L94 200M99 200L100 201L99 200M138 200L139 201L138 200M164 200L165 201L164 200z"/>
<path style="fill:#d9c756; stroke:none;" d="M199 200L200 201L199 200M201 201L201 202L204 202L201 201z"/>
<path style="fill:#acbd66; stroke:none;" d="M210 200L212 202L210 200z"/>
<path style="fill:#d9c756; stroke:none;" d="M211 200L212 201L211 200M94 201L95 202L94 201M97 201L96 204L93 202L99 204L97 201z"/>
<path style="fill:#acbd66; stroke:none;" d="M98 201L99 202L98 201M139 201L140 202L139 201M163 201L164 202L163 201M202.333 201.667L202.667 202.333L202.333 201.667M204 201L205 202L204 201z"/>
<path style="fill:#d9c756; stroke:none;" d="M205 201L203 205L203 206L204 208L205 208L205 201M212.333 201.667L212.667 202.333L212.333 201.667M100 202L102 204L102 202L100 202z"/>
<path style="fill:#acbd66; stroke:none;" d="M141 202L142 203L141 202z"/>
<path style="fill:#d9c756; stroke:none;" d="M153 202L150 206L153 202z"/>
<path style="fill:#acbd66; stroke:none;" d="M161 202L162 203L161 202z"/>
<path style="fill:#faf9f5; stroke:none;" d="M203 202L206 205L203 202z"/>
<path style="fill:#acbd66; stroke:none;" d="M206 202L206 203L211 204L211 203L206 202z"/>
<path style="fill:#d9c756; stroke:none;" d="M208 202L209 203L208 202z"/>
<path style="fill:#acbd66; stroke:none;" d="M93 203L93 205L95 205L93 203M95 203L96 204L95 203z"/>
<path style="fill:#faf9f5; stroke:none;" d="M97 203L98 204L97 203z"/>
<path style="fill:#acbd66; stroke:none;" d="M99.6667 203.333L100.333 203.667L99.6667 203.333M102 203L103 204L102 203z"/>
<path style="fill:#d9c756; stroke:none;" d="M103 203L106 206L106 205L103 203z"/>
<path style="fill:#acbd66; stroke:none;" d="M142.667 203.333L143.333 203.667L142.667 203.333M158.667 203.333L159.333 203.667L158.667 203.333z"/>
<path style="fill:#d9c756; stroke:none;" d="M202.667 203.333L203.333 203.667L202.667 203.333z"/>
<path style="fill:#acbd66; stroke:none;" d="M98 204L99 205L98 204M104 204L105 205L104 204M203 204L204 205L203 204z"/>
<path style="fill:#d9c756; stroke:none;" d="M92.6667 205.333L93.3333 205.667L92.6667 205.333z"/>
<path style="fill:#acbd66; stroke:none;" d="M97 205L98 206L97 205z"/>
<path style="fill:#d9c756; stroke:none;" d="M145.667 205.333L146.333 205.667L145.667 205.333M96 206L96 209L97 209L98 206L96 206z"/>
<path style="fill:#acbd66; stroke:none;" d="M105.333 206.667L105.667 207.333L105.333 206.667z"/>
<path style="fill:#d9c756; stroke:none;" d="M147 206L148 207L147 206z"/>
<path style="fill:#acbd66; stroke:none;" d="M204 206L205 207L204 206z"/>
<path style="fill:#d9c756; stroke:none;" d="M104 207L105 208L104 207M195 207L195 208L199 210L195 207z"/>
<path style="fill:#acbd66; stroke:none;" d="M205.333 207.667L205.667 208.333L205.333 207.667M101 208L102 209L101 208z"/>
<path style="fill:#d9c756; stroke:none;" d="M150 208L151 209L150 208z"/>
<path style="fill:#acbd66; stroke:none;" d="M196 208L197 209L196 208z"/>
<path style="fill:#d9c756; stroke:none;" d="M206 208L205 210L207 210L206 208M97 209L98 212L99 212L97 209z"/>
<path style="fill:#acbd66; stroke:none;" d="M102 209L102 212L103 212L102 209M197 209L198 210L197 209M97 210L98 211L97 210z"/>
<path style="fill:#d9c756; stroke:none;" d="M103 210L104 211L103 210z"/>
<path style="fill:#acbd66; stroke:none;" d="M109 211L109 212C114.2 213.3 113.159 216.876 109 219C115.366 220.299 116.108 210.891 109 211z"/>
<path style="fill:#d9c756; stroke:none;" d="M149 210L150 215L151 215L149 210z"/>
<path style="fill:#acbd66; stroke:none;" d="M198 210L199 211L198 210z"/>
<path style="fill:#d9c756; stroke:none;" d="M204 210L203 213L199 212L199 213C201.797 213.525 204.191 213.284 204 210z"/>
<path style="fill:#acbd66; stroke:none;" d="M99 211L100 212L99 211z"/>
<path style="fill:#d9c756; stroke:none;" d="M100 211L100 213L102 213L102 211L100 211z"/>
<path style="fill:#faf9f5; stroke:none;" d="M110 211L111 216L107 216L107 218C112.978 218.984 115.489 214.38 110 211z"/>
<path style="fill:#d9c756; stroke:none;" d="M111 211L112 212L111 211M113 211L114 212L113 211M189.333 211.667L189.667 212.333L189.333 211.667z"/>
<path style="fill:#acbd66; stroke:none;" d="M190 211L191 212L190 211z"/>
<path style="fill:#d9c756; stroke:none;" d="M191 211L191 213L193 213L191 211z"/>
<path style="fill:#acbd66; stroke:none;" d="M199 211L200 212L199 211M203 211L204 212L203 211z"/>
<path style="fill:#d9c756; stroke:none;" d="M108 212L110 216L111 216L108 212M114 212L115 213L114 212M187 212L186 214L187 212z"/>
<path style="fill:#acbd66; stroke:none;" d="M188 212L189 213L188 212M200 212L201 213L200 212M202 212L203 213L202 212M107 213L110 215L107 213z"/>
<path style="fill:#d9c756; stroke:none;" d="M147 213L147 217L148 217L147 213z"/>
<path style="fill:#acbd66; stroke:none;" d="M187 213L188 214L187 213M201 213L202 214L201 213M186 214C186.844 219.403 190.657 222.363 195 218C190.191 219.681 188.595 217.991 186 214z"/>
<path style="fill:#d9c756; stroke:none;" d="M193 214L196 218L193 214M106.667 215.333L107.333 215.667L106.667 215.333M183 215L184 216L183 215M191.333 215.667L191.667 216.333L191.333 215.667z"/>
<path style="fill:#acbd66; stroke:none;" d="M192 215L193 216L192 215M106.333 216.667L106.667 217.333L106.333 216.667M115 221L120 219L121 219L120 216L115 221M183 216L184 219L185 219L183 216M195 216L196 217L195 216z"/>
<path style="fill:#d9c756; stroke:none;" d="M105 217L106 218L105 217M117 217L118 218L117 217z"/>
<path style="fill:#faf9f5; stroke:none;" d="M119 217L117 220L120 221L119 217z"/>
<path style="fill:#acbd66; stroke:none;" d="M170.667 217.333L171.333 217.667L170.667 217.333z"/>
<path style="fill:#d9c756; stroke:none;" d="M172 217L173 218L172 217M183 217L184 218L183 217M187 217L188 218L187 217z"/>
<path style="fill:#acbd66; stroke:none;" d="M107 218L108 219L107 218z"/>
<path style="fill:#d9c756; stroke:none;" d="M108.333 218.667L108.667 219.333L108.333 218.667M113 218L114 219L113 218M116 218L117 219L116 218z"/>
<path style="fill:#acbd66; stroke:none;" d="M125 218L123 224L124 224L125 218z"/>
<path style="fill:#d9c756; stroke:none;" d="M170 218L171 219L170 218M177 218L178 222L180 222L181 221L181 219L177 218M186 218L187 219L186 218M112 219L113 220L112 219M115 219L116 220L115 219M120 219L119 224L120 219M124 219L125 220L124 219z"/>
<path style="fill:#acbd66; stroke:none;" d="M178 219L179 220L178 219z"/>
<path style="fill:#d9c756; stroke:none;" d="M184.667 219.333L185.333 219.667L184.667 219.333M187 219L188 220L187 219M192 219L193 220L192 219M194 219L195 220L194 219M114 220L113 223L114 220M116 220L118 222L118 220L116 220z"/>
<path style="fill:#acbd66; stroke:none;" d="M131 220L129 229L130 229L131 220z"/>
<path style="fill:#d9c756; stroke:none;" d="M169 221L169 222L174 221L169 221z"/>
<path style="fill:#acbd66; stroke:none;" d="M174 220L174 221L176 223L177 223L174 220M181 220L182 221L181 220z"/>
<path style="fill:#d9c756; stroke:none;" d="M182 220L183 223L187 222L187 221L182 220z"/>
<path style="fill:#acbd66; stroke:none;" d="M185 220L186 221L185 220z"/>
<path style="fill:#d9c756; stroke:none;" d="M188 220L189 221L188 220z"/>
<path style="fill:#acbd66; stroke:none;" d="M113 221L114 222L113 221M118 221L120 223L120 221L118 221z"/>
<path style="fill:#d9c756; stroke:none;" d="M123 221L124 222L123 221M130 221L131 222L130 221M166 221L167 222L166 221z"/>
<path style="fill:#acbd66; stroke:none;" d="M170 221L169 226L170 226L170 221z"/>
<path style="fill:#faf9f5; stroke:none;" d="M171.607 222.086C169.069 223.938 171.888 228.279 174.657 226.825C177.909 225.117 174.485 219.985 171.607 222.086z"/>
<path style="fill:#d9c756; stroke:none;" d="M175 221L176 222L175 221z"/>
<path style="fill:#acbd66; stroke:none;" d="M183 221L184 222L183 221z"/>
<path style="fill:#d9c756; stroke:none;" d="M124 222L125 223L124 222M131 222L132 223L131 222z"/>
<path style="fill:#acbd66; stroke:none;" d="M137 222L138 223L137 222z"/>
<path style="fill:#d9c756; stroke:none;" d="M141 222L141 224L144 224L144 222L141 222z"/>
<path style="fill:#acbd66; stroke:none;" d="M166.333 222.667L166.667 223.333L166.333 222.667z"/>
<path style="fill:#d9c756; stroke:none;" d="M177 222L176 224L178 224L177 222z"/>
<path style="fill:#acbd66; stroke:none;" d="M179 222L180 223L179 222M184 222L184 223L187 224L184 222z"/>
<path style="fill:#d9c756; stroke:none;" d="M136 223L138 225L138 223L136 223M139 223L140 224L139 223z"/>
<path style="fill:#acbd66; stroke:none;" d="M140 223L139 225L140 223M144 223L145 224L144 223z"/>
<path style="fill:#d9c756; stroke:none;" d="M145 223L147 228L144 232L145 232L149 229L145 223z"/>
<path style="fill:#acbd66; stroke:none;" d="M150 223L150 224L155 225L150 223M160 223L160 226L162 225L162 224L160 223z"/>
<path style="fill:#d9c756; stroke:none;" d="M161 223L162 224L161 223M167 223L166 225L168 225L167 223M179.667 223.333L180.333 223.667L179.667 223.333M185 223L186 224L185 223z"/>
<path style="fill:#acbd66; stroke:none;" d="M119 224L120 225L119 224z"/>
<path style="fill:#d9c756; stroke:none;" d="M122.667 224.333L123.333 224.667L122.667 224.333M131 224L134 226L131 224z"/>
<path style="fill:#acbd66; stroke:none;" d="M136.333 224.667L136.667 225.333L136.333 224.667z"/>
<path style="fill:#faf9f5; stroke:none;" d="M140.757 225.046C137.999 227.279 141.511 231.927 144.243 229.343C146.864 226.863 143.6 222.744 140.757 225.046z"/>
<path style="fill:#d9c756; stroke:none;" d="M148 224L149 225L148 224z"/>
<path style="fill:#acbd66; stroke:none;" d="M149 224L150 225L149 224z"/>
<path style="fill:#d9c756; stroke:none;" d="M153 224L154 225L153 224M162 224L160 226L160 227L169 231L162 224z"/>
<path style="fill:#acbd66; stroke:none;" d="M177.333 224.667L177.667 225.333L177.333 224.667M180.333 224.667L180.667 225.333L180.333 224.667M114 225L115 226L114 225z"/>
<path style="fill:#d9c756; stroke:none;" d="M119 225L120 226L119 225z"/>
<path style="fill:#acbd66; stroke:none;" d="M122 225L123 226L122 225z"/>
<path style="fill:#d9c756; stroke:none;" d="M130 225L131 226L130 225z"/>
<path style="fill:#acbd66; stroke:none;" d="M134 225L135 226L134 225z"/>
<path style="fill:#d9c756; stroke:none;" d="M135 225L137 228L135 225M138.667 225.333L139.333 225.667L138.667 225.333z"/>
<path style="fill:#acbd66; stroke:none;" d="M148.333 225.667L148.667 226.333L148.333 225.667z"/>
<path style="fill:#faf9f5; stroke:none;" d="M161 225L162 226L161 225z"/>
<path style="fill:#acbd66; stroke:none;" d="M163 225L164 226L163 225M167 225L167 228L168 228L167 225z"/>
<path style="fill:#d9c756; stroke:none;" d="M181 225L182 226L181 225M122 226L123 227L122 226z"/>
<path style="fill:#acbd66; stroke:none;" d="M138 226L138 229L139 229L138 226M146.333 226.667L146.667 227.333L146.333 226.667z"/>
<path style="fill:#d9c756; stroke:none;" d="M169 226L172 228L169 226M175 228L178 227L175 228z"/>
<path style="fill:#acbd66; stroke:none;" d="M161 227L161 230L162 230L161 227M176 227L177 228L176 227M135.333 228.667L135.667 229.333L135.333 228.667M171.667 228.333L172.333 228.667L171.667 228.333z"/>
<path style="fill:#d9c756; stroke:none;" d="M173 228L174 229L173 228z"/>
<path style="fill:#acbd66; stroke:none;" d="M174.667 228.333L175.333 228.667L174.667 228.333z"/>
<path style="fill:#d9c756; stroke:none;" d="M138 229L138 230L140 232L141 232L138 229z"/>
<path style="fill:#acbd66; stroke:none;" d="M148 229L153 233L153 232L148 229z"/>
<path style="fill:#d9c756; stroke:none;" d="M155.333 229.667L155.667 230.333L155.333 229.667z"/>
<path style="fill:#acbd66; stroke:none;" d="M167 229L168 230L167 229z"/>
<path style="fill:#d9c756; stroke:none;" d="M134.667 230.333L135.333 230.667L134.667 230.333z"/>
<path style="fill:#acbd66; stroke:none;" d="M139 230L140 231L139 230M145 230L146 231L145 230z"/>
<path style="fill:#d9c756; stroke:none;" d="M149 230L150 231L149 230z"/>
<path style="fill:#acbd66; stroke:none;" d="M154.333 230.667L154.667 231.333L154.333 230.667z"/>
<path style="fill:#d9c756; stroke:none;" d="M161.333 230.667L161.667 231.333L161.333 230.667z"/>
<path style="fill:#acbd66; stroke:none;" d="M141 231L141 232L144 232L141 231z"/>
<path style="fill:#d9c756; stroke:none;" d="M153.333 231.667L153.667 232.333L153.333 231.667M150 232L151 233L150 232z"/>
<path style="fill:#acbd66; stroke:none;" d="M141 233L142 234L141 233z"/>
<path style="fill:#d9c756; stroke:none;" d="M132.667 245.333L133.333 245.667L132.667 245.333M136 245L137 246L136 245M166 245L167 246L166 245M169.667 245.333L170.333 245.667L169.667 245.333M128.667 246.333L129.333 246.667L128.667 246.333M137 246L138 247L137 246M165 246L166 247L165 246M173 246L174 247L173 246M125 247L126 248L125 247z"/>
<path style="fill:#63a239; stroke:none;" d="M132 247L132 248L136 248L132 247z"/>
<path style="fill:#d9c756; stroke:none;" d="M164 247L165 248L164 247z"/>
<path style="fill:#63a239; stroke:none;" d="M167 247L167 248L171 248L167 247z"/>
<path style="fill:#d9c756; stroke:none;" d="M177 247L178 248L177 247M121.667 248.333L122.333 248.667L121.667 248.333z"/>
<path style="fill:#63a239; stroke:none;" d="M129.667 248.333L130.333 248.667L129.667 248.333M136 248L137 249L136 248M166 248L167 249L166 248M171 248L171 249L174 249L171 248z"/>
<path style="fill:#d9c756; stroke:none;" d="M180 248L181 249L180 248M118 249L119 250L118 249z"/>
<path style="fill:#63a239; stroke:none;" d="M125 249L125 250L128 250L125 249M137 249L138 250L137 249z"/>
<path style="fill:#d9c756; stroke:none;" d="M140 249L141 250L140 249M162 249L163 250L162 249z"/>
<path style="fill:#63a239; stroke:none;" d="M165 249L166 250L165 249M175 249L175 250L178 250L175 249z"/>
<path style="fill:#d9c756; stroke:none;" d="M184 249L185 250L184 249M114.667 250.333L115.333 250.667L114.667 250.333z"/>
<path style="fill:#63a239; stroke:none;" d="M121 250L121 251L124 251L121 250M138 250L139 251L138 250M164 250L165 251L164 250M179 250L179 251L182 251L179 250z"/>
<path style="fill:#d9c756; stroke:none;" d="M188 250L189 251L188 250M110 251L110 252L113 252L110 251z"/>
<path style="fill:#63a239; stroke:none;" d="M118.667 251.333L119.333 251.667L118.667 251.333M139 251L140 252L139 251z"/>
<path style="fill:#d9c756; stroke:none;" d="M143 251L144 252L143 251M159 251L160 252L159 251z"/>
<path style="fill:#63a239; stroke:none;" d="M163 251L164 252L163 251M183.667 251.333L184.333 251.667L183.667 251.333z"/>
<path style="fill:#d9c756; stroke:none;" d="M191 251L192 252L191 251M107.667 252.333L108.333 252.667L107.667 252.333z"/>
<path style="fill:#63a239; stroke:none;" d="M114 252L114 253L117 253L114 252M140.667 252.333L141.333 252.667L140.667 252.333z"/>
<path style="fill:#d9c756; stroke:none;" d="M145.667 252.333L146.333 252.667L145.667 252.333M156 252L157 253L156 252z"/>
<path style="fill:#63a239; stroke:none;" d="M161 252L162 253L161 252M186 252L186 253L189 253L186 252z"/>
<path style="fill:#d9c756; stroke:none;" d="M194.667 252.333L195.333 252.667L194.667 252.333M104 253L105 254L104 253z"/>
<path style="fill:#63a239; stroke:none;" d="M110.667 253.333L111.333 253.667L110.667 253.333M142.667 253.333L143.333 253.667L142.667 253.333z"/>
<path style="fill:#d9c756; stroke:none;" d="M150 253L151 254L150 253M152 253L153 254L152 253z"/>
<path style="fill:#63a239; stroke:none;" d="M159.667 253.333L160.333 253.667L159.667 253.333M190.667 253.333L191.333 253.667L190.667 253.333z"/>
<path style="fill:#d9c756; stroke:none;" d="M198 253L199 254L198 253M100 254L101 255L100 254z"/>
<path style="fill:#63a239; stroke:none;" d="M107.667 254.333L108.333 254.667L107.667 254.333M144.667 254.333L145.333 254.667L144.667 254.333M156 254L156 255L159 255L156 254M193 254L193 255L196 255L193 254z"/>
<path style="fill:#d9c756; stroke:none;" d="M201.667 254.333L202.333 254.667L201.667 254.333M96.6667 255.333L97.3333 255.667L96.6667 255.333z"/>
<path style="fill:#63a239; stroke:none;" d="M104.667 255.333L105.333 255.667L104.667 255.333M148 255L148 256L155 256L148 255M197.667 255.333L198.333 255.667L197.667 255.333z"/>
<path style="fill:#d9c756; stroke:none;" d="M205.667 255.333L206.333 255.667L205.667 255.333M93.6667 256.333L94.3333 256.667L93.6667 256.333z"/>
<path style="fill:#63a239; stroke:none;" d="M100 256L100 257L103 257L100 256M200 256L200 257L203 257L200 256z"/>
<path style="fill:#d9c756; stroke:none;" d="M209 256L210 257L209 256M89.6667 257.333L90.3333 257.667L89.6667 257.333z"/>
<path style="fill:#63a239; stroke:none;" d="M96.6667 257.333L97.3333 257.667L96.6667 257.333M205.667 257.333L206.333 257.667L205.667 257.333z"/>
<path style="fill:#d9c756; stroke:none;" d="M212.667 257.333L213.333 257.667L212.667 257.333M85.6667 258.333L86.3333 258.667L85.6667 258.333z"/>
<path style="fill:#63a239; stroke:none;" d="M93 258L93 259L96 259L93 258M208.667 258.333L209.333 258.667L208.667 258.333z"/>
<path style="fill:#d9c756; stroke:none;" d="M216 258L217 259L216 258M82 259L83 260L82 259z"/>
<path style="fill:#63a239; stroke:none;" d="M89.6667 259.333L90.3333 259.667L89.6667 259.333M211 259L211 260L214 260L211 259z"/>
<path style="fill:#d9c756; stroke:none;" d="M220 259L221 260L220 259M79 260L80 261L79 260z"/>
<path style="fill:#63a239; stroke:none;" d="M86.6667 260.333L87.3333 260.667L86.6667 260.333M215.667 260.333L216.333 260.667L215.667 260.333z"/>
<path style="fill:#d9c756; stroke:none;" d="M223.667 260.333L224.333 260.667L223.667 260.333M75.6667 261.333L76.3333 261.667L75.6667 261.333z"/>
<path style="fill:#63a239; stroke:none;" d="M82 261L82 262L85 262L82 261M219.667 261.333L220.333 261.667L219.667 261.333z"/>
<path style="fill:#d9c756; stroke:none;" d="M226.667 261.333L227.333 261.667L226.667 261.333z"/>
<path style="fill:#63a239; stroke:none;" d="M78 262L78 263L81 263L78 262M222 262L222 263L225 263L222 262z"/>
<path style="fill:#d9c756; stroke:none;" d="M68 263L69 264L68 263z"/>
<path style="fill:#63a239; stroke:none;" d="M75 263L75 264L78 264L75 263M225 263L225 264L228 264L225 263z"/>
<path style="fill:#d9c756; stroke:none;" d="M234 263L235 264L234 263M65 264L66 265L65 264z"/>
<path style="fill:#63a239; stroke:none;" d="M71 264L71 265L74 265L71 264M229 264L229 265L232 265L229 264z"/>
<path style="fill:#d9c756; stroke:none;" d="M237 264L238 265L237 264z"/>
<path style="fill:#63a239; stroke:none;" d="M68.6667 265.333L69.3333 265.667L68.6667 265.333M233.667 265.333L234.333 265.667L233.667 265.333M64 266L64 267L67 267L64 266M236 266L236 267L241 267L236 266z"/>
<path style="fill:#d9c756; stroke:none;" d="M54.3333 281.667L54.6667 282.333L54.3333 281.667z"/>
<path style="fill:#63a239; stroke:none;" d="M56 282L59 284L59 283L56 282M243 283L243 284L246 284L243 283z"/>
<path style="fill:#d9c756; stroke:none;" d="M251 283L244 287L252 289L251 283M48 284L48 290L49 290L48 284z"/>
<path style="fill:#63a239; stroke:none;" d="M62 284L62 285L66 285L62 284M236 284L236 285L241 285L236 284M67 285L67 286L71 286L67 285M231 285L231 286L235 286L231 285z"/>
<path style="fill:#d9c756; stroke:none;" d="M53 288L53 289L61 287L53 288z"/>
<path style="fill:#63a239; stroke:none;" d="M74 286L74 287L79 287L74 286M223 286L223 287L228 287L223 286M80 287L80 288L86 288L80 287M217 287L217 288L220 288L217 287M221.667 287.333L222.333 287.667L221.667 287.333z"/>
<path style="fill:#d9c756; stroke:none;" d="M225 291C230.964 290.526 238.19 292.599 242 287C237.654 287.073 225.974 286.452 225 291M63 288L64 291L81 291L81 290L72 288L72 289L74 289L74 290L63 288z"/>
<path style="fill:#63a239; stroke:none;" d="M89 288L89 289L95 289L89 288M207 288L207 289L213 289L207 288z"/>
<path style="fill:#acbd66; stroke:none;" d="M237 288L238 289L237 288z"/>
<path style="fill:#63a239; stroke:none;" d="M97 289L97 290L103 290L97 289M199 289L199 290L204 290L199 289z"/>
<path style="fill:#acbd66; stroke:none;" d="M228 289L229 290L228 289M235 289L236 290L235 289z"/>
<path style="fill:#d9c756; stroke:none;" d="M51 290L51 291L54 291L51 290z"/>
<path style="fill:#63a239; stroke:none;" d="M109 290L109 291L118 291L109 290M183 290L183 291L193 291L183 290z"/>
<path style="fill:#d9c756; stroke:none;" d="M248 290L248 291L252 291L248 290M56 291L56 292L59 292L56 291M92 292C94.4692 295.825 98.9625 293.118 103 293L92 292z"/>
<path style="fill:#63a239; stroke:none;" d="M121 291L121 292L135 292L121 291M167 291L167 292L180 292L167 291z"/>
<path style="fill:#d9c756; stroke:none;" d="M241 291L242 292L241 291M244.667 291.333L245.333 291.667L244.667 291.333M62 292L62 293L65 293L62 292M84 292L84 293L91 293L84 292M104.667 292.333L105.333 292.667L104.667 292.333M122 292L123 293L122 292M189 293L189 294L194 295L194 294L193 292L189 293M194 292L194 293L204 296L225 293L194 292M237 292L237 293L241 293L237 292M68.6667 293.333L69.3333 293.667L68.6667 293.333M118.667 293.333L119.333 293.667L118.667 293.333M229 293L230 294L229 293M232.667 293.333L233.333 293.667L232.667 293.333M74 294L74 295L79 295L74 294M129 294C123.09 298.478 111.177 295 104 295L104 296L139 296L129 294M161 295L161 296L171 294L161 295M177.667 294.333L178.333 294.667L177.667 294.333M181 294L182 295L181 294M185 294L177 298L188 295L185 294M223 294L223 295L228 295L223 294M82 295L82 296L85 296L82 295M98.6667 295.333L99.3333 295.667L98.6667 295.333M172 295L172 296L176 296L172 295M218.667 295.333L219.333 295.667L218.667 295.333M89 296L89 297L95 297L89 296M140 296L140 297L150 297L140 296M154 296L154 297L160 297L154 296M195 296L196 297L195 296M209 296L209 297L213 297L209 296M100 297L100 298L103 298L100 297M200 297L200 298L203 298L200 297M110 298L110 299L120 299L110 298M182 298L182 299L193 299L182 298M44 299L44 300L77 300L44 299z"/>
</svg>
